<?xml version="1.0" encoding="utf-8"?>
<!-- Generator: Adobe Illustrator 18.0.0, SVG Export Plug-In . SVG Version: 6.00 Build 0)  -->
<!DOCTYPE svg PUBLIC "-//W3C//DTD SVG 1.1//EN" "http://www.w3.org/Graphics/SVG/1.1/DTD/svg11.dtd">
<svg version="1.1" id="Ebene_1" xmlns="http://www.w3.org/2000/svg" xmlns:xlink="http://www.w3.org/1999/xlink" x="0px" y="0px"
	 viewBox="0 0 340.2 283.5" enable-background="new 0 0 340.2 283.5" xml:space="preserve">
<g>
	<g>
		<g>
			<path fill="#7BB064" d="M92.2,74.2c-35.3,0-63.9,28.6-63.9,63.9l0,109.2h28.9l0-55.8l0-53.4h0c0,0,0,0,0,0c0-19.3,15.7-35,35-35
				c19.3,0,35,15.7,35,35c0,19.3-15.7,35-35,35c-11.7,0-22.1-5.8-28.5-14.7l0,36.9c8.6,4.3,18.2,6.7,28.5,6.7
				c35.3,0,63.9-28.6,63.9-63.9C156.2,102.8,127.5,74.2,92.2,74.2z"/>
		</g>
		<g>
			<path fill="#6F6F6F" d="M225.2,75.1c-10.2,0-19.9,2.4-28.5,6.7l0,36.9c6.3-8.9,16.7-14.7,28.5-14.7c19.3,0,35,15.7,35,35
				c0,19.3-15.7,35-35,35c-19.3,0-35-15.7-35-35c0,0,0,0,0,0h0l0-53.4l0-55.8l-28.9,0l0,109.2c0,35.3,28.6,63.9,63.9,63.9
				c35.3,0,63.9-28.6,63.9-63.9C289.1,103.7,260.5,75.1,225.2,75.1z"/>
		</g>
	</g>
	<path fill="#7BB064" d="M78.3,238.4c0,1.4-0.2,2.7-0.5,3.8c-0.3,1.1-0.8,2.1-1.3,2.9c-0.6,0.8-1.3,1.4-2.2,1.8
		c-0.9,0.4-1.9,0.6-3,0.6c-0.5,0-0.9,0-1.3-0.1c-0.4-0.1-0.8-0.2-1.2-0.4c-0.4-0.2-0.8-0.5-1.2-0.8c-0.4-0.3-0.8-0.7-1.2-1.1v8.1
		c0,0.1,0,0.2-0.1,0.3c0,0.1-0.1,0.1-0.2,0.2c-0.1,0-0.3,0.1-0.4,0.1c-0.2,0-0.4,0-0.7,0c-0.3,0-0.5,0-0.7,0c-0.2,0-0.3-0.1-0.5-0.1
		c-0.1,0-0.2-0.1-0.2-0.2s-0.1-0.2-0.1-0.3v-22.5c0-0.1,0-0.2,0.1-0.3c0-0.1,0.1-0.1,0.2-0.2c0.1,0,0.2-0.1,0.4-0.1
		c0.2,0,0.4,0,0.6,0c0.3,0,0.5,0,0.6,0s0.3,0.1,0.4,0.1c0.1,0,0.2,0.1,0.2,0.2c0,0.1,0.1,0.2,0.1,0.3v2.2c0.5-0.5,1-0.9,1.4-1.3
		c0.5-0.4,0.9-0.7,1.4-0.9c0.5-0.2,0.9-0.4,1.4-0.6c0.5-0.1,1-0.2,1.5-0.2c1.2,0,2.2,0.2,3,0.7c0.8,0.5,1.5,1.1,2,1.9
		c0.5,0.8,0.9,1.7,1.1,2.7C78.2,236.2,78.3,237.3,78.3,238.4z M75.3,238.8c0-0.8-0.1-1.6-0.2-2.4c-0.1-0.8-0.3-1.5-0.6-2
		c-0.3-0.6-0.7-1.1-1.2-1.4c-0.5-0.4-1.2-0.5-1.9-0.5c-0.4,0-0.8,0.1-1.1,0.2c-0.4,0.1-0.8,0.3-1.1,0.5c-0.4,0.2-0.8,0.6-1.2,1
		c-0.4,0.4-0.9,0.9-1.3,1.5v6.4c0.8,1,1.6,1.7,2.3,2.3c0.7,0.5,1.5,0.8,2.3,0.8c0.7,0,1.4-0.2,1.9-0.5c0.5-0.4,1-0.8,1.3-1.4
		c0.3-0.6,0.6-1.3,0.7-2C75.2,240.3,75.3,239.5,75.3,238.8z"/>
	<path fill="#7BB064" d="M96.7,246.7c0,0.1,0,0.2-0.1,0.2c0,0.1-0.1,0.1-0.2,0.2c-0.1,0-0.3,0.1-0.4,0.1c-0.2,0-0.4,0-0.7,0
		c-0.3,0-0.5,0-0.7,0c-0.2,0-0.3-0.1-0.4-0.1c-0.1,0-0.2-0.1-0.2-0.2c0-0.1-0.1-0.1-0.1-0.2v-9.4c0-0.9-0.1-1.7-0.2-2.2
		c-0.1-0.6-0.4-1-0.6-1.4c-0.3-0.4-0.6-0.7-1.1-0.9c-0.4-0.2-0.9-0.3-1.5-0.3c-0.7,0-1.5,0.3-2.2,0.8c-0.7,0.5-1.5,1.3-2.3,2.3v11.3
		c0,0.1,0,0.2-0.1,0.2c0,0.1-0.1,0.1-0.2,0.2c-0.1,0-0.3,0.1-0.4,0.1c-0.2,0-0.4,0-0.7,0c-0.3,0-0.5,0-0.7,0c-0.2,0-0.3-0.1-0.5-0.1
		c-0.1,0-0.2-0.1-0.2-0.2c0-0.1-0.1-0.1-0.1-0.2v-23.9c0-0.1,0-0.2,0.1-0.3c0-0.1,0.1-0.1,0.2-0.2c0.1,0,0.3-0.1,0.5-0.1
		c0.2,0,0.4,0,0.7,0c0.3,0,0.5,0,0.7,0c0.2,0,0.3,0.1,0.4,0.1c0.1,0,0.2,0.1,0.2,0.2c0,0.1,0.1,0.2,0.1,0.3v9.6
		c0.8-0.9,1.7-1.6,2.6-2c0.9-0.4,1.7-0.7,2.6-0.7c1.1,0,2,0.2,2.7,0.5c0.7,0.4,1.3,0.9,1.8,1.5c0.5,0.6,0.8,1.3,1,2.1
		c0.2,0.8,0.3,1.8,0.3,3V246.7z"/>
	<path fill="#7BB064" d="M108.7,247.2l-2.1,5.9c-0.1,0.2-0.3,0.3-0.5,0.4c-0.3,0.1-0.7,0.2-1.3,0.2c-0.3,0-0.6,0-0.8,0
		c-0.2,0-0.3-0.1-0.4-0.2c-0.1-0.1-0.2-0.2-0.2-0.3c0-0.1,0-0.3,0.1-0.4l2.2-5.6c-0.1,0-0.2-0.1-0.3-0.2c-0.1-0.1-0.2-0.2-0.2-0.3
		l-5.7-15.4c-0.1-0.3-0.1-0.4-0.1-0.6c0-0.1,0-0.3,0.1-0.3c0.1-0.1,0.3-0.1,0.5-0.2c0.2,0,0.5,0,0.9,0c0.4,0,0.6,0,0.8,0
		c0.2,0,0.4,0.1,0.5,0.1c0.1,0,0.2,0.1,0.3,0.2c0.1,0.1,0.1,0.2,0.2,0.4l4.6,12.9h0.1l4.4-13c0.1-0.2,0.2-0.4,0.3-0.4
		c0.1-0.1,0.3-0.1,0.5-0.1c0.2,0,0.5,0,0.9,0c0.3,0,0.6,0,0.8,0c0.2,0,0.4,0.1,0.5,0.2c0.1,0.1,0.2,0.2,0.2,0.3c0,0.1,0,0.3-0.1,0.5
		L108.7,247.2z"/>
	<path fill="#7BB064" d="M127.7,242.4c0,0.8-0.2,1.6-0.5,2.2c-0.3,0.6-0.7,1.2-1.3,1.6c-0.6,0.4-1.2,0.8-2,1
		c-0.8,0.2-1.6,0.3-2.6,0.3c-0.6,0-1.1,0-1.6-0.1c-0.5-0.1-1-0.2-1.4-0.3c-0.4-0.1-0.8-0.3-1-0.4c-0.3-0.2-0.5-0.3-0.6-0.4
		c-0.1-0.1-0.2-0.3-0.3-0.5c-0.1-0.2-0.1-0.5-0.1-0.9c0-0.2,0-0.4,0-0.6c0-0.2,0.1-0.3,0.1-0.4c0-0.1,0.1-0.2,0.2-0.2
		c0.1,0,0.1-0.1,0.2-0.1c0.1,0,0.3,0.1,0.6,0.2c0.3,0.2,0.6,0.3,0.9,0.5c0.4,0.2,0.8,0.4,1.3,0.5c0.5,0.2,1.1,0.2,1.8,0.2
		c0.5,0,1-0.1,1.4-0.2c0.4-0.1,0.8-0.3,1.1-0.5c0.3-0.2,0.5-0.5,0.7-0.8c0.2-0.3,0.2-0.7,0.2-1.1c0-0.5-0.1-0.8-0.3-1.1
		c-0.2-0.3-0.5-0.6-0.9-0.8c-0.4-0.2-0.8-0.5-1.3-0.6c-0.5-0.2-1-0.4-1.5-0.6c-0.5-0.2-1-0.4-1.5-0.7c-0.5-0.3-0.9-0.6-1.3-0.9
		c-0.4-0.4-0.7-0.8-0.9-1.3c-0.2-0.5-0.3-1.1-0.3-1.8c0-0.6,0.1-1.2,0.4-1.8c0.2-0.6,0.6-1.1,1.1-1.5c0.5-0.4,1.1-0.8,1.8-1
		c0.7-0.3,1.6-0.4,2.6-0.4c0.4,0,0.9,0,1.3,0.1s0.8,0.2,1.2,0.3c0.3,0.1,0.6,0.2,0.9,0.3c0.2,0.1,0.4,0.2,0.6,0.3
		c0.1,0.1,0.2,0.2,0.3,0.3c0,0.1,0.1,0.2,0.1,0.2c0,0.1,0,0.2,0.1,0.3c0,0.1,0,0.3,0,0.5c0,0.2,0,0.4,0,0.5c0,0.1,0,0.3-0.1,0.4
		c0,0.1-0.1,0.2-0.2,0.2c-0.1,0-0.1,0.1-0.2,0.1c-0.1,0-0.3-0.1-0.5-0.2c-0.2-0.1-0.5-0.3-0.8-0.4c-0.3-0.2-0.7-0.3-1.1-0.4
		c-0.4-0.1-0.9-0.2-1.5-0.2c-0.5,0-0.9,0.1-1.3,0.2c-0.4,0.1-0.7,0.3-0.9,0.5c-0.2,0.2-0.4,0.5-0.6,0.7c-0.1,0.3-0.2,0.6-0.2,0.9
		c0,0.5,0.1,0.9,0.4,1.2c0.2,0.3,0.5,0.6,0.9,0.8c0.4,0.2,0.8,0.5,1.3,0.6c0.5,0.2,1,0.4,1.5,0.6c0.5,0.2,1,0.4,1.5,0.7
		c0.5,0.3,0.9,0.6,1.3,0.9c0.4,0.4,0.7,0.8,0.9,1.3S127.7,241.7,127.7,242.4z"/>
	<path fill="#7BB064" d="M135.3,225.2c0,0.7-0.1,1.2-0.4,1.4c-0.3,0.3-0.7,0.4-1.4,0.4c-0.7,0-1.2-0.1-1.4-0.4
		c-0.3-0.2-0.4-0.7-0.4-1.4c0-0.7,0.1-1.2,0.4-1.4c0.3-0.3,0.7-0.4,1.4-0.4c0.7,0,1.2,0.1,1.4,0.4
		C135.1,224,135.3,224.5,135.3,225.2z M134.9,246.7c0,0.1,0,0.2-0.1,0.2c0,0.1-0.1,0.1-0.2,0.2c-0.1,0-0.3,0.1-0.4,0.1
		c-0.2,0-0.4,0-0.7,0c-0.3,0-0.5,0-0.7,0c-0.2,0-0.3-0.1-0.5-0.1c-0.1,0-0.2-0.1-0.2-0.2c0-0.1-0.1-0.1-0.1-0.2v-16.1
		c0-0.1,0-0.2,0.1-0.2s0.1-0.1,0.2-0.2c0.1,0,0.3-0.1,0.5-0.1c0.2,0,0.4,0,0.7,0c0.3,0,0.5,0,0.7,0c0.2,0,0.3,0.1,0.4,0.1
		c0.1,0,0.2,0.1,0.2,0.2c0,0.1,0.1,0.1,0.1,0.2V246.7z"/>
	<path fill="#7BB064" d="M155.4,238.5c0,1.3-0.2,2.5-0.5,3.6c-0.3,1.1-0.9,2.1-1.5,2.9c-0.7,0.8-1.5,1.4-2.6,1.9
		c-1,0.4-2.2,0.7-3.6,0.7c-1.3,0-2.5-0.2-3.5-0.6c-1-0.4-1.8-1-2.5-1.7c-0.7-0.8-1.1-1.7-1.5-2.7c-0.3-1.1-0.5-2.3-0.5-3.7
		c0-1.3,0.2-2.5,0.5-3.6c0.3-1.1,0.9-2.1,1.5-2.9c0.7-0.8,1.5-1.4,2.6-1.9c1-0.4,2.2-0.7,3.6-0.7c1.3,0,2.5,0.2,3.5,0.6
		c1,0.4,1.8,1,2.5,1.7c0.7,0.8,1.1,1.7,1.5,2.7C155.2,235.9,155.4,237.2,155.4,238.5z M152.3,238.7c0-0.9-0.1-1.7-0.2-2.5
		c-0.2-0.8-0.4-1.5-0.8-2c-0.4-0.6-0.9-1-1.5-1.4c-0.6-0.3-1.4-0.5-2.4-0.5c-0.9,0-1.6,0.2-2.3,0.5c-0.6,0.3-1.2,0.7-1.6,1.3
		c-0.4,0.6-0.7,1.2-0.9,2c-0.2,0.8-0.3,1.6-0.3,2.5c0,0.9,0.1,1.7,0.2,2.5c0.2,0.8,0.4,1.5,0.8,2c0.4,0.6,0.9,1,1.5,1.4
		c0.6,0.3,1.4,0.5,2.4,0.5c0.9,0,1.6-0.2,2.3-0.5c0.6-0.3,1.2-0.7,1.6-1.3c0.4-0.6,0.7-1.2,0.9-2
		C152.2,240.5,152.3,239.6,152.3,238.7z"/>
	<path fill="#6F6F6F" d="M174.5,238.5c0,1.4-0.2,2.7-0.5,3.8c-0.3,1.1-0.8,2.1-1.3,2.9s-1.3,1.4-2.2,1.8c-0.9,0.4-1.8,0.6-3,0.6
		c-0.5,0-1-0.1-1.4-0.2c-0.4-0.1-0.9-0.3-1.3-0.5c-0.4-0.2-0.8-0.5-1.3-0.9c-0.4-0.3-0.9-0.8-1.3-1.3v2c0,0.1,0,0.2-0.1,0.3
		c0,0.1-0.1,0.1-0.2,0.2c-0.1,0-0.2,0.1-0.4,0.1c-0.2,0-0.4,0-0.6,0c-0.2,0-0.4,0-0.6,0c-0.2,0-0.3-0.1-0.4-0.1
		c-0.1,0-0.2-0.1-0.2-0.2c0-0.1-0.1-0.2-0.1-0.3v-23.9c0-0.1,0-0.2,0.1-0.3c0-0.1,0.1-0.1,0.2-0.2c0.1,0,0.3-0.1,0.5-0.1
		c0.2,0,0.4,0,0.7,0c0.3,0,0.5,0,0.7,0c0.2,0,0.3,0.1,0.4,0.1c0.1,0,0.2,0.1,0.2,0.2c0,0.1,0.1,0.2,0.1,0.3v9.6
		c0.5-0.5,0.9-0.9,1.4-1.2c0.4-0.3,0.9-0.6,1.3-0.8c0.4-0.2,0.9-0.4,1.3-0.5c0.4-0.1,0.9-0.1,1.4-0.1c1.2,0,2.2,0.2,3,0.7
		c0.8,0.5,1.5,1.1,2,1.9c0.5,0.8,0.9,1.7,1.1,2.7C174.4,236.2,174.5,237.3,174.5,238.5z M171.5,238.8c0-0.8-0.1-1.6-0.2-2.4
		c-0.1-0.8-0.3-1.5-0.7-2.1c-0.3-0.6-0.7-1.1-1.2-1.4c-0.5-0.4-1.2-0.5-1.9-0.5c-0.4,0-0.8,0.1-1.1,0.2c-0.4,0.1-0.8,0.3-1.1,0.5
		s-0.8,0.6-1.2,1c-0.4,0.4-0.9,0.9-1.3,1.5v6.4c0.8,1,1.6,1.7,2.3,2.3c0.7,0.5,1.5,0.8,2.3,0.8c0.7,0,1.4-0.2,1.9-0.5
		c0.5-0.4,1-0.8,1.3-1.4c0.3-0.6,0.6-1.3,0.7-2C171.4,240.3,171.5,239.6,171.5,238.8z"/>
	<path fill="#6F6F6F" d="M191.1,246.8c0,0.1,0,0.3-0.1,0.3s-0.2,0.1-0.4,0.2c-0.2,0-0.4,0.1-0.7,0.1c-0.3,0-0.6,0-0.7-0.1
		c-0.2,0-0.3-0.1-0.4-0.2c-0.1-0.1-0.1-0.2-0.1-0.3v-1.6c-0.7,0.8-1.5,1.3-2.4,1.8c-0.9,0.4-1.8,0.6-2.7,0.6c-0.8,0-1.6-0.1-2.3-0.3
		c-0.7-0.2-1.3-0.5-1.8-1c-0.5-0.4-0.9-0.9-1.1-1.5c-0.3-0.6-0.4-1.3-0.4-2.1c0-0.9,0.2-1.7,0.6-2.4c0.4-0.7,0.9-1.2,1.6-1.7
		c0.7-0.4,1.5-0.8,2.5-1c1-0.2,2.1-0.3,3.4-0.3h2.2V236c0-0.6-0.1-1.2-0.2-1.6c-0.1-0.5-0.3-0.9-0.6-1.2c-0.3-0.3-0.7-0.6-1.1-0.7
		c-0.5-0.2-1-0.2-1.7-0.2c-0.7,0-1.4,0.1-2,0.3c-0.6,0.2-1.1,0.4-1.5,0.6c-0.4,0.2-0.8,0.4-1.1,0.6c-0.3,0.2-0.5,0.3-0.7,0.3
		c-0.1,0-0.2,0-0.3-0.1c-0.1,0-0.1-0.1-0.2-0.2c-0.1-0.1-0.1-0.2-0.1-0.4c0-0.2,0-0.3,0-0.5c0-0.3,0-0.5,0.1-0.7
		c0-0.2,0.1-0.3,0.3-0.5c0.2-0.2,0.4-0.3,0.8-0.5c0.4-0.2,0.8-0.4,1.4-0.6c0.5-0.2,1.1-0.3,1.7-0.4c0.6-0.1,1.2-0.2,1.8-0.2
		c1.2,0,2.1,0.1,3,0.4c0.8,0.3,1.5,0.6,2,1.2c0.5,0.5,0.9,1.1,1.1,1.9c0.2,0.8,0.3,1.6,0.3,2.6V246.8z M188.2,239.4h-2.5
		c-0.8,0-1.5,0.1-2.1,0.2c-0.6,0.1-1.1,0.3-1.5,0.6c-0.4,0.3-0.7,0.6-0.9,1c-0.2,0.4-0.3,0.8-0.3,1.3c0,0.8,0.3,1.5,0.8,2
		c0.5,0.5,1.3,0.7,2.2,0.7c0.8,0,1.5-0.2,2.2-0.6c0.7-0.4,1.4-1,2.1-1.8V239.4z"/>
	<path fill="#6F6F6F" d="M199.5,246.7c0,0.1,0,0.2-0.1,0.2c0,0.1-0.1,0.1-0.2,0.2c-0.1,0-0.3,0.1-0.4,0.1c-0.2,0-0.4,0-0.7,0
		c-0.3,0-0.5,0-0.7,0c-0.2,0-0.3-0.1-0.5-0.1c-0.1,0-0.2-0.1-0.2-0.2c0-0.1-0.1-0.1-0.1-0.2v-23.9c0-0.1,0-0.2,0.1-0.3
		c0-0.1,0.1-0.1,0.2-0.2c0.1,0,0.3-0.1,0.5-0.1c0.2,0,0.4,0,0.7,0c0.3,0,0.5,0,0.7,0c0.2,0,0.3,0.1,0.4,0.1c0.1,0,0.2,0.1,0.2,0.2
		c0,0.1,0.1,0.2,0.1,0.3V246.7z"/>
	<path fill="#6F6F6F" d="M217.1,246.8c0,0.1,0,0.3-0.1,0.3c-0.1,0.1-0.2,0.1-0.4,0.2c-0.2,0-0.4,0.1-0.7,0.1c-0.3,0-0.6,0-0.7-0.1
		c-0.2,0-0.3-0.1-0.4-0.2c-0.1-0.1-0.1-0.2-0.1-0.3v-1.6c-0.7,0.8-1.5,1.3-2.4,1.8c-0.9,0.4-1.8,0.6-2.7,0.6c-0.8,0-1.6-0.1-2.3-0.3
		c-0.7-0.2-1.3-0.5-1.8-1c-0.5-0.4-0.9-0.9-1.1-1.5c-0.3-0.6-0.4-1.3-0.4-2.1c0-0.9,0.2-1.7,0.6-2.4c0.4-0.7,0.9-1.2,1.6-1.7
		c0.7-0.4,1.5-0.8,2.5-1c1-0.2,2.1-0.3,3.4-0.3h2.2V236c0-0.6-0.1-1.2-0.2-1.6c-0.1-0.5-0.3-0.9-0.6-1.2c-0.3-0.3-0.7-0.6-1.1-0.7
		c-0.5-0.2-1-0.2-1.7-0.2c-0.7,0-1.4,0.1-2,0.3c-0.6,0.2-1.1,0.4-1.5,0.6c-0.4,0.2-0.8,0.4-1.1,0.6c-0.3,0.2-0.5,0.3-0.7,0.3
		c-0.1,0-0.2,0-0.3-0.1c-0.1,0-0.1-0.1-0.2-0.2c-0.1-0.1-0.1-0.2-0.1-0.4c0-0.2,0-0.3,0-0.5c0-0.3,0-0.5,0.1-0.7
		c0-0.2,0.1-0.3,0.3-0.5c0.2-0.2,0.4-0.3,0.8-0.5c0.4-0.2,0.8-0.4,1.4-0.6c0.5-0.2,1.1-0.3,1.7-0.4c0.6-0.1,1.2-0.2,1.8-0.2
		c1.2,0,2.1,0.1,3,0.4c0.8,0.3,1.5,0.6,2,1.2c0.5,0.5,0.9,1.1,1.1,1.9c0.2,0.8,0.3,1.6,0.3,2.6V246.8z M214.1,239.4h-2.5
		c-0.8,0-1.5,0.1-2.1,0.2c-0.6,0.1-1.1,0.3-1.5,0.6c-0.4,0.3-0.7,0.6-0.9,1c-0.2,0.4-0.3,0.8-0.3,1.3c0,0.8,0.3,1.5,0.8,2
		c0.5,0.5,1.3,0.7,2.2,0.7c0.8,0,1.5-0.2,2.2-0.6c0.7-0.4,1.4-1,2.1-1.8V239.4z"/>
	<path fill="#6F6F6F" d="M236.4,246.7c0,0.1,0,0.2-0.1,0.2c0,0.1-0.1,0.1-0.2,0.2c-0.1,0-0.3,0.1-0.4,0.1c-0.2,0-0.4,0-0.7,0
		c-0.3,0-0.5,0-0.7,0c-0.2,0-0.3-0.1-0.4-0.1c-0.1,0-0.2-0.1-0.2-0.2c0-0.1-0.1-0.1-0.1-0.2v-9.4c0-0.9-0.1-1.7-0.2-2.2
		c-0.1-0.6-0.4-1-0.6-1.4c-0.3-0.4-0.6-0.7-1.1-0.9s-0.9-0.3-1.5-0.3c-0.7,0-1.5,0.3-2.2,0.8c-0.7,0.5-1.5,1.3-2.3,2.3v11.3
		c0,0.1,0,0.2-0.1,0.2c0,0.1-0.1,0.1-0.2,0.2c-0.1,0-0.3,0.1-0.4,0.1c-0.2,0-0.4,0-0.7,0c-0.3,0-0.5,0-0.7,0c-0.2,0-0.3-0.1-0.5-0.1
		c-0.1,0-0.2-0.1-0.2-0.2c0-0.1-0.1-0.1-0.1-0.2v-16.1c0-0.1,0-0.2,0.1-0.2c0-0.1,0.1-0.1,0.2-0.2c0.1-0.1,0.2-0.1,0.4-0.1
		c0.2,0,0.4,0,0.7,0c0.3,0,0.5,0,0.7,0c0.2,0,0.3,0.1,0.4,0.1c0.1,0.1,0.2,0.1,0.2,0.2c0,0.1,0.1,0.1,0.1,0.2v2.1
		c0.9-1,1.8-1.8,2.7-2.2c0.9-0.5,1.8-0.7,2.7-0.7c1.1,0,2,0.2,2.7,0.5c0.7,0.4,1.3,0.9,1.8,1.5c0.5,0.6,0.8,1.3,1,2.1
		c0.2,0.8,0.3,1.8,0.3,2.9V246.7z"/>
	<path fill="#6F6F6F" d="M253.3,244.3c0,0.2,0,0.4,0,0.5c0,0.1,0,0.3-0.1,0.4c0,0.1-0.1,0.2-0.1,0.3c0,0.1-0.1,0.2-0.3,0.3
		c-0.1,0.1-0.4,0.3-0.8,0.6c-0.4,0.2-0.8,0.4-1.2,0.6c-0.4,0.2-0.9,0.3-1.5,0.4c-0.5,0.1-1.1,0.2-1.6,0.2c-1.2,0-2.2-0.2-3.1-0.6
		c-0.9-0.4-1.6-0.9-2.2-1.7c-0.6-0.7-1.1-1.6-1.4-2.7c-0.3-1.1-0.5-2.3-0.5-3.7c0-1.6,0.2-3,0.6-4.1c0.4-1.1,0.9-2.1,1.6-2.8
		c0.7-0.7,1.5-1.3,2.4-1.6c0.9-0.4,1.9-0.5,3-0.5c0.5,0,1,0,1.5,0.1c0.5,0.1,0.9,0.2,1.3,0.4c0.4,0.2,0.8,0.3,1.1,0.5
		c0.3,0.2,0.5,0.4,0.7,0.5c0.1,0.1,0.2,0.3,0.3,0.3c0.1,0.1,0.1,0.2,0.1,0.3c0,0.1,0.1,0.2,0.1,0.4c0,0.1,0,0.3,0,0.5
		c0,0.5-0.1,0.8-0.2,1c-0.1,0.2-0.2,0.3-0.4,0.3c-0.2,0-0.4-0.1-0.6-0.3c-0.2-0.2-0.5-0.4-0.9-0.7c-0.4-0.2-0.8-0.5-1.3-0.7
		c-0.5-0.2-1.1-0.3-1.8-0.3c-1.4,0-2.5,0.5-3.3,1.6c-0.8,1.1-1.1,2.7-1.1,4.8c0,1,0.1,1.9,0.3,2.7c0.2,0.8,0.5,1.4,0.9,2
		c0.4,0.5,0.9,0.9,1.4,1.2c0.6,0.3,1.2,0.4,1.9,0.4c0.7,0,1.3-0.1,1.8-0.3c0.5-0.2,1-0.5,1.3-0.7c0.4-0.3,0.7-0.5,0.9-0.7
		c0.3-0.2,0.5-0.3,0.6-0.3c0.1,0,0.2,0,0.2,0.1c0.1,0,0.1,0.1,0.2,0.2c0,0.1,0.1,0.3,0.1,0.4C253.3,243.8,253.3,244,253.3,244.3z"/>
	<path fill="#6F6F6F" d="M271,238c0,0.5-0.1,0.8-0.4,1c-0.2,0.2-0.5,0.3-0.8,0.3h-10.6c0,0.9,0.1,1.7,0.3,2.4
		c0.2,0.7,0.5,1.3,0.9,1.8c0.4,0.5,1,0.9,1.6,1.2c0.7,0.3,1.5,0.4,2.5,0.4c0.8,0,1.5-0.1,2.1-0.2c0.6-0.1,1.1-0.3,1.6-0.4
		c0.4-0.2,0.8-0.3,1.1-0.4c0.3-0.1,0.5-0.2,0.6-0.2c0.1,0,0.2,0,0.2,0.1c0.1,0,0.1,0.1,0.2,0.2c0,0.1,0.1,0.2,0.1,0.3
		c0,0.1,0,0.3,0,0.5c0,0.2,0,0.3,0,0.4c0,0.1,0,0.2,0,0.3c0,0.1,0,0.2-0.1,0.2s-0.1,0.1-0.2,0.2c-0.1,0.1-0.3,0.2-0.6,0.3
		c-0.3,0.1-0.7,0.3-1.3,0.4c-0.5,0.1-1.1,0.3-1.8,0.4c-0.7,0.1-1.4,0.2-2.2,0.2c-1.3,0-2.5-0.2-3.5-0.6c-1-0.4-1.8-0.9-2.5-1.6
		c-0.7-0.7-1.2-1.6-1.5-2.7c-0.3-1.1-0.5-2.4-0.5-3.8c0-1.4,0.2-2.6,0.5-3.7c0.4-1.1,0.9-2,1.5-2.8c0.7-0.8,1.5-1.4,2.4-1.8
		c1-0.4,2-0.6,3.2-0.6c1.3,0,2.3,0.2,3.2,0.6c0.9,0.4,1.6,1,2.2,1.6c0.6,0.7,1,1.5,1.3,2.4c0.3,0.9,0.4,1.9,0.4,3V238z M268,237.1
		c0-1.6-0.3-2.8-1-3.7c-0.7-0.9-1.8-1.3-3.2-1.3c-0.7,0-1.4,0.1-1.9,0.4c-0.6,0.3-1,0.6-1.4,1.1c-0.4,0.5-0.7,1-0.9,1.6
		c-0.2,0.6-0.3,1.2-0.3,1.9H268z"/>
	<path fill="#6F6F6F" d="M279.3,245.2c0,0.8-0.1,1.4-0.4,1.7c-0.3,0.3-0.8,0.4-1.5,0.4c-0.7,0-1.2-0.1-1.5-0.4
		c-0.3-0.3-0.4-0.8-0.4-1.6c0-0.8,0.1-1.4,0.4-1.7c0.3-0.3,0.8-0.4,1.5-0.4c0.7,0,1.2,0.1,1.5,0.4
		C279.2,243.9,279.3,244.4,279.3,245.2z"/>
	<path fill="#7BB064" d="M298,246.7c0,0.1,0,0.2-0.1,0.2c0,0.1-0.1,0.1-0.2,0.2c-0.1,0-0.3,0.1-0.5,0.1c-0.2,0-0.4,0-0.7,0
		c-0.3,0-0.5,0-0.7,0c-0.2,0-0.3-0.1-0.5-0.1c-0.1,0-0.2-0.1-0.2-0.2c0-0.1-0.1-0.1-0.1-0.2v-14.1h-7.2v14.1c0,0.1,0,0.2-0.1,0.2
		c0,0.1-0.1,0.1-0.2,0.2c-0.1,0-0.3,0.1-0.5,0.1c-0.2,0-0.4,0-0.7,0c-0.3,0-0.5,0-0.7,0c-0.2,0-0.3-0.1-0.5-0.1
		c-0.1,0-0.2-0.1-0.2-0.2c0-0.1-0.1-0.1-0.1-0.2v-14.1h-2.3c-0.2,0-0.3-0.1-0.4-0.3c-0.1-0.2-0.1-0.5-0.1-0.9c0-0.2,0-0.4,0-0.6
		c0-0.2,0.1-0.3,0.1-0.4c0-0.1,0.1-0.2,0.2-0.2c0.1,0,0.2-0.1,0.3-0.1h2.3v-1.7c0-1.1,0.1-2.1,0.3-2.9c0.2-0.8,0.5-1.4,1-2
		c0.4-0.5,0.9-0.9,1.6-1.1c0.6-0.2,1.3-0.4,2.2-0.4c0.3,0,0.5,0,0.8,0c0.3,0,0.5,0.1,0.7,0.1c0.2,0,0.4,0.1,0.6,0.2
		c0.2,0.1,0.3,0.1,0.3,0.2c0.1,0.1,0.1,0.1,0.1,0.2c0,0.1,0.1,0.1,0.1,0.2c0,0.1,0,0.2,0.1,0.4c0,0.1,0,0.3,0,0.5
		c0,0.4,0,0.7-0.1,0.8c-0.1,0.2-0.2,0.3-0.3,0.3c-0.1,0-0.2,0-0.3-0.1c-0.1,0-0.2-0.1-0.4-0.1c-0.2,0-0.3-0.1-0.6-0.1
		c-0.2,0-0.5-0.1-0.8-0.1c-0.8,0-1.4,0.3-1.8,0.9s-0.5,1.6-0.5,2.9v1.8h9.3c0.3,0,0.5,0.1,0.7,0.2c0.1,0.2,0.2,0.4,0.2,0.7V246.7z
		 M298.3,225.2c0,0.3,0,0.6-0.1,0.8c-0.1,0.2-0.1,0.4-0.3,0.5c-0.1,0.1-0.3,0.2-0.5,0.3c-0.2,0.1-0.5,0.1-0.9,0.1
		c-0.3,0-0.6,0-0.9-0.1c-0.2-0.1-0.4-0.2-0.6-0.3c-0.1-0.1-0.2-0.3-0.3-0.5c-0.1-0.2-0.1-0.5-0.1-0.8c0-0.3,0-0.6,0.1-0.8
		c0.1-0.2,0.2-0.4,0.3-0.6c0.1-0.2,0.3-0.3,0.6-0.3c0.2-0.1,0.5-0.1,0.9-0.1c0.4,0,0.7,0,0.9,0.1c0.2,0.1,0.4,0.2,0.5,0.3
		c0.1,0.1,0.2,0.3,0.3,0.6C298.3,224.6,298.3,224.9,298.3,225.2z"/>
	<path fill="#7BB064" d="M311.8,245.6c0,0.3,0,0.6-0.1,0.8c0,0.2-0.1,0.4-0.2,0.4c-0.1,0.1-0.2,0.2-0.4,0.3
		c-0.2,0.1-0.4,0.2-0.7,0.2c-0.2,0.1-0.5,0.1-0.8,0.1s-0.5,0.1-0.8,0.1c-0.8,0-1.6-0.1-2.1-0.3c-0.6-0.2-1.1-0.6-1.5-1
		c-0.4-0.4-0.7-1-0.8-1.7c-0.2-0.7-0.3-1.5-0.3-2.4v-9.4h-2.3c-0.2,0-0.3-0.1-0.4-0.3c-0.1-0.2-0.2-0.5-0.2-0.9c0-0.2,0-0.4,0-0.6
		c0-0.2,0.1-0.3,0.1-0.4c0-0.1,0.1-0.2,0.2-0.2c0.1,0,0.2-0.1,0.3-0.1h2.2v-3.8c0-0.1,0-0.2,0.1-0.2c0-0.1,0.1-0.1,0.2-0.2
		c0.1-0.1,0.3-0.1,0.5-0.1c0.2,0,0.4,0,0.7,0c0.3,0,0.5,0,0.7,0c0.2,0,0.3,0.1,0.4,0.1c0.1,0.1,0.2,0.1,0.2,0.2
		c0,0.1,0.1,0.1,0.1,0.2v3.8h4.1c0.1,0,0.2,0,0.3,0.1c0.1,0,0.1,0.1,0.2,0.2c0.1,0.1,0.1,0.2,0.1,0.4c0,0.2,0,0.3,0,0.6
		c0,0.4-0.1,0.7-0.2,0.9c-0.1,0.2-0.3,0.3-0.4,0.3h-4.1v9c0,1.1,0.2,1.9,0.5,2.5c0.3,0.6,0.9,0.9,1.8,0.9c0.3,0,0.5,0,0.7-0.1
		s0.4-0.1,0.6-0.2c0.2-0.1,0.3-0.1,0.4-0.2c0.1-0.1,0.2-0.1,0.3-0.1c0.1,0,0.1,0,0.2,0c0.1,0,0.1,0.1,0.1,0.2c0,0.1,0.1,0.2,0.1,0.3
		C311.8,245.2,311.8,245.3,311.8,245.6z"/>
</g>
</svg>
